HIERARCHY
ROOT Hips
{
	OFFSET -0.001795 -0.223333 0.028219
	CHANNELS 6 Xposition Yposition Zposition Zrotation Yrotation Xrotation 
	JOINT LeftUpLeg
	{
		OFFSET 0.069520 -0.091406 -0.006815
		CHANNELS 3 Zrotation Yrotation Xrotation
		JOINT LeftLeg
		{
			OFFSET 0.034277 -0.375199 -0.004496
			CHANNELS 3 Zrotation Yrotation Xrotation
			JOINT LeftFoot
			{
				OFFSET -0.013596 -0.397961 -0.043693
				CHANNELS 3 Zrotation Yrotation Xrotation
				JOINT LeftToe
				{
					OFFSET 0.026358 -0.055791 0.119288
					CHANNELS 3 Zrotation Yrotation Xrotation
					End Site
					{
						OFFSET 0.000000 0.000000 0.000000
					}
				}
			}
		}
	}
	JOINT RightUpLeg
	{
		OFFSET -0.067670 -0.090522 -0.004320
		CHANNELS 3 Zrotation Yrotation Xrotation
		JOINT RightLeg
		{
			OFFSET -0.038290 -0.382569 -0.008850
			CHANNELS 3 Zrotation Yrotation Xrotation
			JOINT RightFoot
			{
				OFFSET 0.015774 -0.398415 -0.042312
				CHANNELS 3 Zrotation Yrotation Xrotation
				JOINT RightToe
				{
					OFFSET -0.025372 -0.048144 0.123348
					CHANNELS 3 Zrotation Yrotation Xrotation
					End Site
					{
						OFFSET 0.000000 0.000000 0.000000
					}
				}
			}
		}
	}
	JOINT Spine
	{
		OFFSET -0.002533 0.108963 -0.026696
		CHANNELS 3 Zrotation Yrotation Xrotation
		JOINT Spine1
		{
			OFFSET 0.005487 0.135180 0.001092
			CHANNELS 3 Zrotation Yrotation Xrotation
			JOINT Spine2
			{
				OFFSET 0.001457 0.052922 0.025425
				CHANNELS 3 Zrotation Yrotation Xrotation
				JOINT Neck
				{
					OFFSET -0.002778 0.213870 -0.042857
					CHANNELS 3 Zrotation Yrotation Xrotation
					JOINT Head
					{
						OFFSET 0.005152 0.064970 0.051349
						CHANNELS 3 Zrotation Yrotation Xrotation
						End Site
						{
							OFFSET 0.000000 0.000000 0.000000
						}
					}
				}
				JOINT LeftShoulder
				{
					OFFSET 0.078845 0.121749 -0.034090
					CHANNELS 3 Zrotation Yrotation Xrotation
					JOINT LeftArm
					{
						OFFSET 0.090977 0.030469 -0.008868
						CHANNELS 3 Zrotation Yrotation Xrotation
						JOINT LeftForeArm
						{
							OFFSET 0.259612 -0.012772 -0.027456
							CHANNELS 3 Zrotation Yrotation Xrotation
							JOINT LeftHand
							{
								OFFSET 0.249234 0.008986 -0.001171
								CHANNELS 3 Zrotation Yrotation Xrotation
								End Site
								{
									OFFSET 0.000000 0.000000 0.000000
								}
							}
						}
					}
				}
				JOINT RightShoulder
				{
					OFFSET -0.081759 0.118833 -0.038615
					CHANNELS 3 Zrotation Yrotation Xrotation
					JOINT RightArm
					{
						OFFSET -0.096012 0.032551 -0.009143
						CHANNELS 3 Zrotation Yrotation Xrotation
						JOINT RightForeArm
						{
							OFFSET -0.253742 -0.013329 -0.021401
							CHANNELS 3 Zrotation Yrotation Xrotation
							JOINT RightHand
							{
								OFFSET -0.255298 0.007772 -0.005559
								CHANNELS 3 Zrotation Yrotation Xrotation
								End Site
								{
									OFFSET 0.000000 0.000000 0.000000
								}
							}
						}
					}
				}
			}
		}
	}
}
MOTION
Frames: 16
Frame Time: 0.050000
-0.017150 0.958219 -0.054898 -0.187732 15.047867 14.339683 5.725479 -1.100809 -13.421699 1.280694 -0.051445 -1.149427 0.210316 6.815686 12.116029 0.000000 0.000000 0.000000 -0.634613 1.300116 -16.729743 -8.906246 0.293150 -6.030298 5.151497 4.156452 20.566524 0.000000 0.000000 0.000000 3.806670 -0.679582 5.469817 0.895076 -0.246186 -2.859074 -9.909737 3.705864 2.090882 18.970065 -10.386768 -12.575338 0.000000 0.000000 0.000000 1.384978 -27.984558 8.782833 -33.340004 -34.177800 4.582059 -8.305004 -45.735140 3.502762 0.000000 0.000000 0.000000 -4.042426 17.452896 6.262547 44.866644 19.777029 4.118083 24.524376 51.873105 16.160925 0.000000 0.000000 0.000000 
-0.020380 0.958850 -0.057759 0.000946 16.797781 14.527243 5.773520 -1.229124 -14.703843 1.722857 -0.129282 -0.149061 -0.978541 5.162568 12.146595 0.000000 0.000000 0.000000 -0.729732 1.257372 -17.041453 -8.850112 0.335005 -5.801765 4.372260 3.049007 21.136314 0.000000 0.000000 0.000000 3.921324 -0.807288 6.604965 0.478415 -0.053973 -3.003148 -10.262077 4.189451 1.855977 19.593208 -10.964398 -11.978328 0.000000 0.000000 0.000000 2.549440 -30.165758 9.347289 -28.459190 -38.624519 4.277209 -1.339841 -39.472052 0.609789 0.000000 0.000000 0.000000 -4.162180 19.951864 7.273283 42.689659 23.030417 5.095941 18.710443 50.857629 12.908489 0.000000 0.000000 0.000000 
-0.022840 0.958748 -0.059476 0.443558 18.419421 15.124679 5.451549 -1.367195 -15.747024 2.300957 -0.190052 0.209362 -2.153845 3.327612 11.848110 0.000000 0.000000 0.000000 -1.134770 1.171452 -17.347002 -8.911118 0.386254 -5.527083 3.701907 2.527005 20.368637 0.000000 0.000000 0.000000 3.896625 -0.879925 7.218769 0.317715 0.000701 -2.825028 -10.761004 4.733622 1.888341 20.087652 -11.341276 -11.725116 0.000000 0.000000 0.000000 2.931005 -30.510110 9.360779 -25.643670 -40.468291 3.711690 1.179277 -38.381551 -0.370458 0.000000 0.000000 0.000000 -4.323569 20.858078 7.683284 41.973593 23.943996 5.417921 16.204907 50.224704 11.589565 0.000000 0.000000 0.000000 
-0.024312 0.959067 -0.059923 1.147051 19.803248 16.100016 5.100698 -1.556378 -17.163127 2.846320 -0.260640 0.703920 -3.890088 0.851304 12.228244 0.000000 0.000000 0.000000 -1.781262 1.054842 -17.907724 -8.778949 0.400821 -5.433913 2.743591 1.312214 20.123219 0.000000 0.000000 0.000000 3.958021 -0.951619 7.639812 -0.000158 0.149822 -3.037571 -11.290403 5.980622 2.241387 20.704738 -11.437729 -12.354709 0.000000 0.000000 0.000000 2.110519 -30.768961 9.333955 -24.630639 -40.189989 3.305858 -0.193029 -41.264031 -0.190023 0.000000 0.000000 0.000000 -4.765857 20.699417 7.631267 41.868938 23.220717 5.289986 15.461982 51.691962 11.934411 0.000000 0.000000 0.000000 
-0.025092 0.958827 -0.059983 1.824014 21.467868 17.060642 4.722916 -1.723385 -18.101614 2.965178 -0.237840 0.305551 -5.067405 -0.626436 12.674263 0.000000 0.000000 0.000000 -2.266023 0.932990 -18.330554 -9.402841 0.442853 -5.439921 2.428983 1.134887 20.119448 0.000000 0.000000 0.000000 4.196752 -1.053401 8.048251 -0.347221 0.276443 -2.894876 -12.111122 6.442237 2.527218 21.695342 -11.872530 -12.886881 0.000000 0.000000 0.000000 1.376470 -29.886209 8.964151 -25.572331 -38.863260 3.345558 -4.348844 -47.460310 1.050831 0.000000 0.000000 0.000000 -3.915219 19.317455 7.429444 41.104258 20.778608 4.250471 17.699054 53.958888 14.115074 0.000000 0.000000 0.000000 
-0.025414 0.959118 -0.060402 2.736966 22.886534 18.463028 4.022935 -1.946006 -19.218169 3.046950 -0.209066 -0.137449 -5.973705 -1.752630 12.985092 0.000000 0.000000 0.000000 -2.905221 0.770109 -19.482413 -9.981836 0.523022 -5.115581 1.901708 0.438922 20.711718 0.000000 0.000000 0.000000 3.936051 -1.070903 8.350635 -0.003498 0.186368 -3.545358 -12.649653 7.036983 3.669775 21.841080 -10.965168 -15.091472 0.000000 0.000000 0.000000 0.042047 -29.042024 8.541055 -27.616663 -37.223872 3.585118 -11.113945 -53.466342 3.927863 0.000000 0.000000 0.000000 -3.532306 18.125196 7.153460 40.098124 18.567815 3.271468 18.315759 55.690798 15.396671 0.000000 0.000000 0.000000 
-0.025540 0.959305 -0.061778 3.355632 23.640751 19.621092 3.801538 -2.143481 -20.360020 2.677278 -0.159492 -0.477524 -6.593095 -2.126895 13.829873 0.000000 0.000000 0.000000 -3.305421 0.648364 -20.428809 -10.522930 0.549810 -5.119220 1.736265 0.222335 21.261784 0.000000 0.000000 0.000000 3.832133 -1.093582 8.540079 0.183987 0.103162 -3.533981 -13.106266 7.510036 4.010846 22.672314 -10.825893 -16.629289 0.000000 0.000000 0.000000 -0.651716 -29.011994 8.407414 -29.989453 -36.543014 4.010899 -17.503744 -56.359427 7.112431 0.000000 0.000000 0.000000 -3.517048 17.788043 7.102439 38.361317 17.830086 2.780952 14.656568 56.039555 13.653720 0.000000 0.000000 0.000000 
-0.025682 0.959918 -0.063943 3.815212 24.125167 20.386236 3.251004 -2.331571 -21.233075 2.832607 -0.174367 -0.373657 -6.755448 -2.150445 14.073552 0.000000 0.000000 0.000000 -3.547563 0.560596 -21.030878 -10.787928 0.546511 -5.231150 1.274718 -0.509743 21.804090 0.000000 0.000000 0.000000 3.940743 -1.200084 9.204461 0.277789 0.138019 -4.346319 -13.270878 7.561520 5.075462 22.747185 -10.106996 -18.444604 0.000000 0.000000 0.000000 -1.320330 -29.988729 8.671506 -31.150958 -37.960909 4.463852 -16.515127 -56.564933 6.674650 0.000000 0.000000 0.000000 -4.159184 18.553535 7.252047 36.679822 19.077280 2.940293 5.317032 53.459027 8.010296 0.000000 0.000000 0.000000 
-0.025872 0.960889 -0.066366 4.404255 24.480105 21.043879 2.804062 -2.530540 -22.150774 2.515689 -0.171333 -0.051175 -6.860030 -1.863948 14.658191 0.000000 0.000000 0.000000 -4.126968 0.412291 -21.419143 -10.619484 0.518405 -5.386159 0.747363 -1.321440 22.195024 0.000000 0.000000 0.000000 3.941530 -1.250251 9.558948 0.567319 0.024232 -4.370142 -13.734849 7.311801 4.879713 22.671164 -9.771771 -19.005525 0.000000 0.000000 0.000000 -0.724641 -32.636069 9.584348 -30.738897 -41.863338 4.941740 -8.338118 -53.092955 2.602360 0.000000 0.000000 0.000000 -5.169984 20.921763 7.953380 33.486235 21.672139 3.304455 -2.934491 47.226644 2.981601 0.000000 0.000000 0.000000 
-0.026169 0.961527 -0.068381 4.699963 24.803393 21.244806 2.498810 -2.622444 -22.509669 2.817213 -0.213619 0.306427 -7.386912 -2.744123 14.611756 0.000000 0.000000 0.000000 -4.387861 0.354182 -21.415317 -10.443256 0.482645 -5.585336 0.196188 -2.163673 22.479104 0.000000 0.000000 0.000000 4.341423 -1.361077 9.786137 0.650758 -0.038502 -4.071995 -13.737947 6.709423 4.587887 22.719149 -10.506870 -17.338113 0.000000 0.000000 0.000000 0.092223 -35.601119 10.664870 -27.452942 -46.497509 4.583258 1.603625 -47.618534 -1.392859 0.000000 0.000000 0.000000 -6.677282 24.306311 8.832514 29.654074 25.055698 3.676553 -9.314796 38.442628 -0.190926 0.000000 0.000000 0.000000 
-0.026611 0.961847 -0.069728 4.820623 24.421099 21.145301 2.501176 -2.646603 -22.733197 2.761813 -0.259390 1.039739 -7.458259 -3.095948 14.397117 0.000000 0.000000 0.000000 -4.724436 0.319622 -21.224131 -9.789676 0.457672 -5.549128 -0.099855 -2.581557 21.610283 0.000000 0.000000 0.000000 4.521195 -1.455762 10.306112 0.403532 0.033287 -3.812086 -13.554086 6.522418 3.977992 22.405354 -10.856663 -15.995092 0.000000 0.000000 0.000000 2.401395 -37.821717 11.356148 -22.077560 -51.580920 2.920502 9.837133 -40.229287 -3.646609 0.000000 0.000000 0.000000 -9.366803 27.229192 9.047459 25.586875 29.365945 4.167108 -11.124409 28.897628 -0.879415 0.000000 0.000000 0.000000 
-0.027032 0.961551 -0.070335 4.629656 24.169960 20.486407 2.511814 -2.614144 -22.647176 3.058725 -0.349110 1.939016 -7.375962 -3.189672 14.138678 0.000000 0.000000 0.000000 -4.902002 0.326870 -20.733543 -9.568936 0.443573 -5.581240 0.639578 -1.475812 21.628260 0.000000 0.000000 0.000000 4.591774 -1.513664 10.706228 -0.047805 0.122594 -2.816824 -13.165700 6.143426 2.901549 21.449048 -10.733961 -14.646066 0.000000 0.000000 0.000000 3.274772 -39.558272 11.911098 -15.981040 -54.153700 0.580603 13.347055 -32.611203 -3.587978 0.000000 0.000000 0.000000 -10.810916 29.799437 9.510918 21.839484 31.763393 3.960903 -11.265361 22.696038 -0.864359 0.000000 0.000000 0.000000 
-0.027224 0.960543 -0.069955 4.152243 23.809551 20.007004 3.340032 -2.590659 -23.129992 2.740857 -0.445765 3.567071 -7.218802 -3.609476 13.354290 0.000000 0.000000 0.000000 -4.364862 0.452653 -20.757971 -9.178776 0.453579 -5.347337 0.044123 -2.500509 21.529837 0.000000 0.000000 0.000000 4.358174 -1.509555 11.053444 -0.389211 0.255503 -2.732297 -12.625361 6.907485 2.620160 21.574377 -10.968061 -14.256686 0.000000 0.000000 0.000000 3.513648 -40.234896 12.069253 -13.087263 -55.487442 -0.827739 14.688666 -29.584188 -3.514047 0.000000 0.000000 0.000000 -11.132446 30.613984 9.725081 20.512636 32.982786 3.953925 -12.104451 20.891681 -0.946118 0.000000 0.000000 0.000000 
-0.026985 0.959819 -0.068529 3.980892 23.753189 19.479954 3.878809 -2.575177 -23.422980 2.264925 -0.504966 4.924475 -7.250991 -3.807321 13.241332 0.000000 0.000000 0.000000 -4.466666 0.432534 -20.848173 -8.481054 0.565370 -4.167197 -0.252565 -2.890190 20.722124 0.000000 0.000000 0.000000 4.130542 -1.478019 11.199760 -0.904829 0.456323 -2.601826 -12.306633 7.419600 2.354796 20.808435 -10.514567 -13.983017 0.000000 0.000000 0.000000 1.720912 -40.127173 12.157000 -14.978304 -54.986538 0.221131 14.024187 -30.141601 -3.438572 0.000000 0.000000 0.000000 -9.830317 30.570394 10.210402 22.515364 32.697454 4.342008 -13.881107 22.833827 -1.311256 0.000000 0.000000 0.000000 
-0.026258 0.958866 -0.066026 3.615175 24.355082 19.263869 4.542401 -2.551478 -23.563724 2.094390 -0.503690 5.140721 -7.719707 -4.417399 13.464286 0.000000 0.000000 0.000000 -4.304543 0.433198 -20.879415 -7.903885 0.611269 -3.480138 -0.776465 -3.572728 20.242509 0.000000 0.000000 0.000000 3.950525 -1.403275 10.827032 -1.277089 0.609687 -2.619557 -11.963570 7.017076 2.808851 19.944339 -9.546196 -14.887566 0.000000 0.000000 0.000000 -1.064206 -38.671314 11.876013 -19.798557 -51.714353 2.560096 10.774597 -35.757520 -3.283486 0.000000 0.000000 0.000000 -7.642423 29.308005 10.485071 27.433402 31.113549 4.973942 -15.866626 31.950007 -2.168719 0.000000 0.000000 0.000000 
-0.025387 0.959101 -0.062565 3.510223 24.699476 19.146619 4.868321 -2.434360 -22.893486 1.693483 -0.396298 4.313441 -7.837862 -4.419252 13.668798 0.000000 0.000000 0.000000 -4.509756 0.385092 -20.743690 -7.212543 0.607543 -3.048047 -1.012925 -3.879703 20.017913 0.000000 0.000000 0.000000 3.720985 -1.310593 10.406470 -1.971923 0.909455 -2.884669 -12.113497 7.818229 3.039354 19.931094 -9.775939 -14.245680 0.000000 0.000000 0.000000 -3.646532 -36.833231 11.156602 -26.476437 -46.023765 4.741871 2.939342 -44.614842 -1.599234 0.000000 0.000000 0.000000 -4.949533 26.251228 10.283097 33.205020 26.377667 4.750382 -14.245303 49.013667 -1.945698 0.000000 0.000000 0.000000 
